<?xml version="1.0" standalone="no"?>
<!DOCTYPE svg PUBLIC "-//W3C//DTD SVG 20010904//EN"
 "http://www.w3.org/TR/2001/REC-SVG-20010904/DTD/svg10.dtd">
<svg version="1.0" xmlns="http://www.w3.org/2000/svg"
 width="400.000000pt" height="400.000000pt" viewBox="0 0 400.000000 400.000000"
 preserveAspectRatio="xMidYMid meet">
<metadata>
Created by potrace 1.14, written by Peter Selinger 2001-2017
</metadata>
<g transform="translate(0.000000,400.000000) scale(0.100000,-0.100000)"
fill="#000000" stroke="none">
<path d="M1568 3524 c-2 -1 -68 -5 -148 -8 -80 -4 -161 -8 -180 -11 -19 -2
-71 -6 -115 -10 -44 -3 -91 -8 -105 -10 -14 -2 -56 -7 -95 -10 -239 -19 -366
-73 -502 -212 -42 -43 -75 -89 -102 -146 -72 -145 -70 -124 -68 -782 l2 -590
27 -73 c58 -160 157 -277 300 -355 48 -27 125 -56 168 -63 14 -3 32 -7 40 -9
8 -2 49 -7 90 -11 41 -4 82 -8 90 -10 8 -1 18 -3 23 -3 4 -1 7 -148 7 -328 0
-311 1 -330 20 -361 35 -58 118 -76 173 -39 26 18 30 22 417 387 25 23 40 44
35 46 -32 12 -142 93 -188 137 -97 95 -156 200 -188 332 -19 81 -20 111 -16
508 2 232 6 436 9 452 12 56 56 163 91 217 115 179 313 307 517 333 167 22
375 30 755 30 438 -1 682 -12 812 -40 l63 -13 -6 42 c-22 153 -109 304 -232
401 -111 87 -240 134 -417 150 -106 10 -185 17 -215 20 -19 2 -75 6 -125 10
-49 3 -124 8 -165 11 -75 6 -768 13 -772 8z"/>
<path d="M2407 2704 c-1 -1 -72 -5 -157 -8 -237 -9 -320 -16 -385 -32 -175
-43 -306 -170 -351 -339 -17 -62 -19 -804 -3 -875 25 -109 99 -216 199 -285
52 -36 162 -72 240 -79 163 -14 383 -24 555 -26 l70 0 71 -68 c100 -95 329
-310 378 -355 65 -59 128 -62 189 -8 l32 29 5 213 5 212 54 4 c154 11 304 105
381 239 56 97 60 131 60 551 0 245 -4 401 -11 435 -33 154 -151 285 -304 338
-79 27 -141 34 -405 46 -137 6 -618 12 -623 8z"/>
</g>
</svg>
